<svg xmlns="http://www.w3.org/2000/svg" xmlns:xlink="http://www.w3.org/1999/xlink" width="800" zoomAndPan="magnify" viewBox="0 0 600 449.999984" height="600" preserveAspectRatio="xMidYMid meet" version="1.0"><defs><g/></defs><path fill="#92dcff" d="M 98.308594 356.410156 L 502.050781 356.410156 C 511.886719 356.410156 519.863281 348.433594 519.863281 338.597656 L 519.863281 64.628906 C 519.863281 54.792969 511.886719 46.816406 502.050781 46.816406 L 253.921875 46.816406 C 244.601562 46.816406 235.832031 42.40625 230.265625 34.929688 L 218.269531 18.8125 C 214.308594 13.484375 208.054688 10.34375 201.410156 10.34375 L 98.308594 10.34375 C 88.472656 10.347656 80.496094 18.324219 80.496094 28.164062 L 80.496094 338.601562 C 80.496094 348.433594 88.472656 356.410156 98.308594 356.410156 Z M 98.308594 356.410156 " fill-opacity="1" fill-rule="nonzero"/><path fill="#65caf8" d="M 502.046875 356.410156 L 98.308594 356.410156 C 88.472656 356.410156 80.496094 348.433594 80.496094 338.597656 L 80.496094 105.808594 C 80.496094 95.972656 88.472656 87.992188 98.308594 87.992188 L 502.050781 87.992188 C 511.886719 87.992188 519.863281 95.972656 519.863281 105.808594 L 519.863281 338.597656 C 519.859375 348.433594 511.882812 356.410156 502.046875 356.410156 Z M 502.046875 356.410156 " fill-opacity="1" fill-rule="nonzero"/><path fill="#92dcff" d="M 495.96875 338.886719 L 104.386719 338.886719 C 103.039062 338.886719 101.945312 337.792969 101.945312 336.445312 C 101.945312 335.097656 103.039062 334.003906 104.386719 334.003906 L 495.972656 334.003906 C 497.320312 334.003906 498.414062 335.097656 498.414062 336.445312 C 498.414062 337.792969 497.320312 338.886719 495.96875 338.886719 Z M 495.96875 338.886719 " fill-opacity="1" fill-rule="nonzero"/><path fill="#92dcff" d="M 495.96875 318.910156 L 104.386719 318.910156 C 103.039062 318.910156 101.945312 317.816406 101.945312 316.46875 C 101.945312 315.121094 103.039062 314.027344 104.386719 314.027344 L 495.972656 314.027344 C 497.320312 314.027344 498.414062 315.121094 498.414062 316.46875 C 498.414062 317.816406 497.320312 318.910156 495.96875 318.910156 Z M 495.96875 318.910156 " fill-opacity="1" fill-rule="nonzero"/><path fill="#d9d9d9" d="M 197.199219 369.476562 L 402.753906 369.476562 C 407.464844 369.476562 411.980469 371.347656 415.3125 374.675781 C 418.640625 378.007812 420.511719 382.527344 420.511719 387.238281 L 420.511719 422.761719 C 420.511719 427.472656 418.640625 431.992188 415.3125 435.324219 C 411.980469 438.652344 407.464844 440.523438 402.753906 440.523438 L 197.199219 440.523438 C 187.390625 440.523438 179.441406 432.574219 179.441406 422.761719 L 179.441406 387.238281 C 179.441406 377.425781 187.390625 369.476562 197.199219 369.476562 " fill-opacity="0.5412" fill-rule="nonzero"/><g fill="#000000" fill-opacity="1"><g transform="translate(188.238277, 424.124967)"><g><path d="M 11.398438 0.5 C 13.949219 0.5 16.097656 0.0507812 17.949219 -1.101562 C 19.199219 -1.851562 20.296875 -2.898438 21.296875 -4.347656 L 21.296875 0 L 25.546875 0 L 25.546875 -16.296875 C 25.546875 -18.148438 25.546875 -22.496094 22.648438 -25.296875 C 20.699219 -27.199219 17.75 -28.148438 14.546875 -28.148438 C 9.25 -28.148438 4.398438 -25.097656 3.449219 -19.347656 L 7.699219 -19.347656 C 8.347656 -22.449219 11.097656 -24.398438 14.5 -24.398438 C 16.648438 -24.398438 18.398438 -23.699219 19.597656 -22.496094 C 20.746094 -21.347656 21.296875 -19.699219 21.296875 -17.546875 L 11.449219 -15.648438 C 8.699219 -15.097656 6.597656 -14.25 5.097656 -13.046875 C 3.300781 -11.648438 2.398438 -9.699219 2.398438 -7.347656 C 2.398438 -2.5 5.847656 0.5 11.398438 0.5 Z M 11.898438 -3.25 C 8.699219 -3.25 6.648438 -4.898438 6.648438 -7.449219 C 6.648438 -8.648438 7.050781 -9.597656 7.800781 -10.347656 C 8.75 -11.25 10.25 -11.898438 12.347656 -12.296875 L 21.347656 -14.097656 C 21.347656 -9.5 20.246094 -6.25 16.296875 -4.199219 C 15.046875 -3.550781 13.597656 -3.25 11.898438 -3.25 Z M 11.898438 -3.25 "/></g></g></g><g fill="#000000" fill-opacity="1"><g transform="translate(217.033818, 424.124967)"><g><path d="M 7.800781 0 L 7.800781 -14.546875 C 7.800781 -18 8.648438 -20.347656 10.25 -21.898438 C 11.550781 -23.199219 13.347656 -23.898438 15.597656 -23.898438 L 17.046875 -23.898438 L 17.046875 -28.148438 L 16.847656 -28.148438 C 13.097656 -28.148438 10.347656 -26.949219 7.800781 -23.847656 L 7.800781 -27.648438 L 3.550781 -27.648438 L 3.550781 0 Z M 7.800781 0 "/></g></g></g><g fill="#000000" fill-opacity="1"><g transform="translate(235.181011, 424.124967)"><g><path d="M 7.847656 0 L 7.847656 -11.796875 C 7.847656 -17.449219 8.550781 -20.449219 10.347656 -22.347656 C 11.5 -23.597656 13.148438 -24.398438 15.398438 -24.398438 C 17.296875 -24.398438 18.699219 -23.898438 19.648438 -22.847656 C 20.746094 -21.597656 21.246094 -19.597656 21.246094 -16.648438 L 21.246094 0 L 25.496094 0 L 25.496094 -16.648438 C 25.496094 -18.398438 25.496094 -21.296875 24.199219 -23.796875 C 22.847656 -26.347656 20.398438 -28.148438 16.046875 -28.148438 C 13.046875 -28.148438 10.648438 -26.949219 7.847656 -23.347656 L 7.847656 -38.144531 L 3.601562 -38.144531 L 3.601562 0 Z M 7.847656 0 "/></g></g></g><g fill="#000000" fill-opacity="1"><g transform="translate(264.02654, 424.124967)"><g><path d="M 6.050781 0.5 C 7.597656 0.5 8.898438 -0.851562 8.898438 -2.5 C 8.898438 -4.050781 7.597656 -5.398438 6.050781 -5.398438 C 4.398438 -5.398438 3 -4.097656 3 -2.5 C 3 -0.851562 4.347656 0.5 6.050781 0.5 Z M 6.050781 0.5 "/></g></g></g><g fill="#000000" fill-opacity="1"><g transform="translate(275.924698, 424.124967)"><g><path d="M 13.296875 0 L 20.496094 -21.648438 L 27.597656 0 L 31.546875 0 L 39.746094 -27.648438 L 35.195312 -27.648438 L 29.347656 -6.898438 L 22.398438 -27.648438 L 18.546875 -27.648438 L 11.597656 -6.898438 L 5.800781 -27.648438 L 1.25 -27.648438 L 9.347656 0 Z M 13.296875 0 "/></g></g></g><g fill="#000000" fill-opacity="1"><g transform="translate(316.918347, 424.124967)"><g><path d="M 15.847656 0.5 C 22.699219 0.5 26.898438 -3.699219 28.597656 -8.898438 L 24.046875 -8.898438 C 22.847656 -5.847656 19.996094 -3.25 15.796875 -3.25 C 11.796875 -3.25 8.550781 -6 7.148438 -10.25 C 6.847656 -11.097656 6.648438 -12.148438 6.597656 -13 L 29.097656 -13 L 29.097656 -14.5 C 29.097656 -23.398438 22.699219 -28.148438 15.75 -28.148438 C 7.199219 -28.148438 2.398438 -21.246094 2.398438 -13.75 C 2.398438 -5.597656 7.898438 0.5 15.847656 0.5 Z M 7 -16.75 C 7.148438 -17.597656 7.398438 -18.597656 7.800781 -19.449219 C 9.300781 -22.597656 12.148438 -24.398438 15.847656 -24.398438 C 19.398438 -24.398438 22.496094 -22.648438 23.949219 -19.449219 C 24.296875 -18.648438 24.496094 -17.648438 24.546875 -16.75 Z M 7 -16.75 "/></g></g></g><g fill="#000000" fill-opacity="1"><g transform="translate(348.363482, 424.124967)"><g><path d="M 16.898438 0.5 C 24.347656 0.5 29.195312 -5.347656 29.195312 -13.796875 C 29.195312 -22.296875 24.347656 -28.148438 16.898438 -28.148438 C 13.199219 -28.148438 10.699219 -27.046875 7.847656 -23.347656 L 7.847656 -38.144531 L 3.601562 -38.144531 L 3.601562 0 L 7.847656 0 L 7.847656 -4.300781 C 10.648438 -0.699219 13.097656 0.5 16.898438 0.5 Z M 16.5 -3.25 C 11.347656 -3.25 7.699219 -7.699219 7.699219 -13.796875 C 7.699219 -19.949219 11.347656 -24.398438 16.5 -24.398438 C 21.699219 -24.398438 24.949219 -19.847656 24.949219 -13.796875 C 24.949219 -7.800781 21.699219 -3.25 16.5 -3.25 Z M 16.5 -3.25 "/></g></g></g><g fill="#000000" fill-opacity="1"><g transform="translate(380.058578, 424.124967)"><g><path d="M 16.898438 -28.148438 C 13.097656 -28.148438 10.648438 -26.949219 7.847656 -23.347656 L 7.847656 -27.648438 L 3.601562 -27.648438 L 3.601562 10.5 L 7.847656 10.5 L 7.847656 -4.300781 C 10.699219 -0.601562 13.199219 0.5 16.898438 0.5 C 24.347656 0.5 29.195312 -5.347656 29.195312 -13.847656 C 29.195312 -22.296875 24.347656 -28.148438 16.898438 -28.148438 Z M 16.5 -24.398438 C 21.699219 -24.398438 24.949219 -19.847656 24.949219 -13.847656 C 24.949219 -7.800781 21.699219 -3.25 16.5 -3.25 C 11.347656 -3.25 7.699219 -7.699219 7.699219 -13.847656 C 7.699219 -19.949219 11.347656 -24.398438 16.5 -24.398438 Z M 16.5 -24.398438 "/></g></g></g></svg>